<svg width="28" height="22" viewBox="0 0 28 22" fill="none" xmlns="http://www.w3.org/2000/svg">
<path fill-rule="evenodd" clip-rule="evenodd" d="M26.4764 11.7075L16.9826 20.707C16.5704 21.0977 15.9022 21.0977 15.49 20.707C15.0778 20.3162 15.0778 19.6828 15.49 19.292L23.1839 11.9999H2.52301C1.94042 11.9999 1.46814 11.5523 1.46814 11C1.46814 10.4477 1.94042 10.0001 2.52301 10.0001H23.1839L15.49 2.70796C15.0778 2.31724 15.0778 1.68376 15.49 1.29304C15.9022 0.90232 16.5704 0.90232 16.9826 1.29304L26.4764 10.2925C26.6745 10.4801 26.7858 10.7346 26.7858 11C26.7858 11.2654 26.6745 11.5199 26.4764 11.7075Z" fill="white" stroke="#0C1217"/>
</svg>
